# xmcd
#
# Track frame offsets:
#        150
#        16342
#        32422
#        47055
#        60790
#        78150
#        94067
#        109017
#        127187
#        141260
#        158640
#        174275
#        181350
#        194817
#        210165
#        224427
#        243777
#        270592
#
# Disc length: 4440 seconds
#
# Revision: 0
# Processed by: cddbd v1.5PL3 Copyright (c) Steve Scherf et al.
# Submitted via: ExactAudioCopy v0.95a3
#
DISCID=eb115612
DTITLE=Hilary Duff - Metamorphosis
DYEAR=2004
DGENRE=
TTITLE0=So Yesterday
TTITLE1=Come Clean
TTITLE2=Workin' It Out
TTITLE3=Little Voice
TTITLE4=Where Did I Go Right?
TTITLE5=Anywhere But Here
TTITLE6=The Math
TTITLE7=Love Just Is
TTITLE8=Sweet Sixteen
TTITLE9=Party Up
TTITLE10=Metamorphosis
TTITLE11=Inner Strength
TTITLE12=Why Not
TTITLE13=A Day In The Sun
TTITLE14=Girl Can Rock
TTITLE15=So Yesterday Thunderpuss Remix
TTITLE16=Come Clean Radio Mix
TTITLE17=DATA TRACK
EXTD=
EXTT0=
EXTT1=
EXTT2=
EXTT3=
EXTT4=
EXTT5=
EXTT6=
EXTT7=
EXTT8=
EXTT9=
EXTT10=
EXTT11=
EXTT12=
EXTT13=
EXTT14=
EXTT15=
EXTT16=
EXTT17=
PLAYORDER=
